:version 1.10
:name ASF
:units
  mass 1
  length 1
  angle deg
:documentation
  ASF file generated by Kaydara
:root
  axis xyz
  order  tx ty tz rx ry rz
  position 0 0 0
  orientation 0 0 0
:bonedata
  begin
    id 1
    name RightUpLegDummy
    direction -0.718183 -0.695806 0.00816078
    length 4.904
    axis 0 0 0 xyz
  end
  begin
    id 2
    name RightUpLeg
    direction -0.0736652 -0.994202 0.0783343
    length 17.4976
    axis -2.72909 -3.00389 -4.00133 xyz
    dof rx ry rz
  end
  begin
    id 3
    name RightLeg
    direction -0.0389037 -0.994596 -0.0962598
    length 16.5821
    axis 3.95836 -18.5909 -4.46993 xyz
    dof rx ry rz
  end
  begin
    id 4
    name RightFoot
    direction -0.311643 -0.412678 0.855906
    length 3.77069
    axis -1.99483 -18.8351 -3.27644 xyz
    dof rx ry rz
  end
  begin
    id 5
    name RightToes
    direction -0.317852 0.0389852 0.947339
    length 3.85082
    axis -2.00228 -18.1713 -3.25211 xyz
    dof rx ry rz
  end
  begin
    id 6
    name SpineDummy
    direction 8.3039e-015 1 4.44677e-016
    length 4.6813
    axis 0 0 0 xyz
  end
  begin
    id 7
    name Spine
    direction -0.000262373 0.999988 0.00493267
    length 10.1015
    axis -0.00246081 0.00062579 0.0150362 xyz
    dof rx ry rz
  end
  begin
    id 8
    name Spine1
    direction 0 0 0
    length 0
    axis -0.00349562 0.000650293 0.0196666 xyz
    dof rx ry rz
  end
  begin
    id 9
    name HEadDummy
    direction -0.000343232 0.999999 0.00123745
    length 3.43865
    axis -0.00349562 0.000650293 0.0196666 xyz
  end
  begin
    id 10
    name HEad
    direction -0.0461221 0.980933 0.188796
    length 5.12695
    axis -0.00351404 -7.04812 0.0199272 xyz
    dof rx ry rz
  end
  begin
    id 11
    name LeftShoulder1Dummy
    direction 0.998904 -0.0399089 -0.0244534
    length 3.5433
    axis -0.00349562 0.000650293 0.0196666 xyz
  end
  begin
    id 12
    name LeftShoulder1
    direction 0.99951 1.64443e-005 0.0312999
    length 4.05031
    axis -0.00349562 0.000650293 0.0196666 xyz
    dof rx ry rz
  end
  begin
    id 13
    name LeftArm
    direction 0.984791 0.0515299 0.165927
    length 12.9126
    axis -64.823 -10.7743 5.20463 xyz
    dof rx ry rz
  end
  begin
    id 14
    name LeftForeArm
    direction 0.984968 0.0534808 0.16425
    length 10.8596
    axis -30.0462 -7.70601 1.87451 xyz
    dof rx ry rz
  end
  begin
    id 15
    name LeftHand
    direction 0.975871 0.0289682 0.216418
    length 6.62295
    axis -20.1348 -6.98077 1.86072 xyz
    dof rx ry rz
  end
  begin
    id 16
    name RightShoulderDummy
    direction -0.998877 -0.0405946 -0.0244307
    length 3.5433
    axis -0.00349562 0.000650293 0.0196666 xyz
  end
  begin
    id 17
    name RightShoulder
    direction -0.998933 -0.0249743 -0.0388558
    length 4.05031
    axis -0.0205316 -4.02113 1.41395 xyz
    dof rx ry rz
  end
  begin
    id 18
    name RightArm
    direction -0.997559 0.068664 0.0127103
    length 12.9638
    axis -67.3882 1.84188 -6.15987 xyz
    dof rx ry rz
  end
  begin
    id 19
    name RightForeArm
    direction -0.991508 0.0912848 0.0926241
    length 10.8312
    axis -22.1975 3.41087 -4.28711 xyz
    dof rx ry rz
  end
  begin
    id 20
    name RightHand
    direction -0.989262 0.0600788 0.133232
    length 6.57864
    axis -12.2911 2.17515 -4.39675 xyz
    dof rx ry rz
  end
  begin
    id 21
    name LeftUpLegDummy
    direction 0.718183 -0.695806 0.00816078
    length 4.904
    axis 0 0 0 xyz
  end
  begin
    id 22
    name LeftUpLeg
    direction 0.0831398 -0.99469 0.0606531
    length 17.4976
    axis -1.71016 2.29552 4.63832 xyz
    dof rx ry rz
  end
  begin
    id 23
    name LeftLeg
    direction 0.0498442 -0.991778 -0.117862
    length 16.5821
    axis 5.13757 15.5727 5.13348 xyz
    dof rx ry rz
  end
  begin
    id 24
    name LeftFoot
    direction 0.269026 -0.433896 0.85986
    length 3.77069
    axis -0.576502 15.6961 4.10267 xyz
    dof rx ry rz
  end
  begin
    id 25
    name LeftToes
    direction 0.277311 0.0251143 0.960452
    length 3.85048
    axis -0.576502 15.6961 4.10267 xyz
    dof rx ry rz
  end
:hierarchy
  begin
    root RightUpLegDummy SpineDummy LeftUpLegDummy
    RightUpLegDummy RightUpLeg
    RightUpLeg RightLeg
    RightLeg RightFoot
    RightFoot RightToes
    SpineDummy Spine
    Spine Spine1
    Spine1 HEadDummy LeftShoulder1Dummy RightShoulderDummy
    HEadDummy HEad
    LeftShoulder1Dummy LeftShoulder1
    LeftShoulder1 LeftArm
    LeftArm LeftForeArm
    LeftForeArm LeftHand
    RightShoulderDummy RightShoulder
    RightShoulder RightArm
    RightArm RightForeArm
    RightForeArm RightHand
    LeftUpLegDummy LeftUpLeg
    LeftUpLeg LeftLeg
    LeftLeg LeftFoot
    LeftFoot LeftToes
  end

:SAMPLES-PER-SECOND 30
:FULLY-SPECIFIED
:DEGREES
123
root  -16.9361 38.3215 44.7424 -4.48077 -56.7061 6.22994
RightUpLeg  -29.586 -9.58833 1.26084
RightLeg  52.248 17.3866 1.43521
RightFoot  -4.54809 -0.0462898 0.848403
RightToes  -5.82073e-011 -3.18055e-015 -2.98177e-016
Spine  19.8875 0.335746 2.12203
Spine1  -3.89264 0.346867 2.079
HEad  11.3272 -25.5423 11.336
LeftShoulder1  -3.88251e-019 9.70628e-020 -3.87848e-018
LeftArm  -7.44207 5.63878 -64.9602
LeftForeArm  -32.6299 -62.0202 19.8939
LeftHand  -1.74346 -9.06568 14.608
RightShoulder  4.97776 8.95849 24.9368
RightArm  24.7924 -30.457 39.2215
RightForeArm  -61.4559 67.0477 -77.5784
RightHand  -4.55501 9.75359 -33.7588
LeftUpLeg  -20.6391 5.48171 -2.40964
LeftLeg  32.3787 -2.36785 8.71607
LeftFoot  -7.06551 0.0975394 -2.2552
LeftToes  1.2018e-011 -3.94675e-011 -1.33631e-011
124
root  -17.4621 38.933 45.3761 -6.37884 -61.9821 8.38427
RightUpLeg  -29.9983 -12.8755 2.07633
RightLeg  48.1887 12.7209 -4.67696
RightFoot  -4.57716 0.013635 -0.15399
RightToes  -5.82073e-011 -3.18055e-015 -2.98177e-016
Spine  17.8641 0.721893 0.232629
Spine1  -2.72551 0.447148 2.27781
HEad  13.1831 -26.8533 10.6136
LeftShoulder1  -3.88251e-019 9.70628e-020 -3.87848e-018
LeftArm  -8.06776 7.24988 -63.0457
LeftForeArm  -38.3306 -67.8963 26.6866
LeftHand  -1.60716 -9.26312 13.3112
RightShoulder  5.18866 9.03489 26.0206
RightArm  30.853 -32.4604 35.3788
RightForeArm  -66.2933 67.4061 -81.7532
RightHand  -3.58184 9.21378 -27.8788
LeftUpLeg  -16.1697 8.96876 -3.11135
LeftLeg  27.8485 0.0290084 8.84281
LeftFoot  -5.64919 0.105559 -1.8528
LeftToes  1.2018e-011 -3.94675e-011 -1.33631e-011
125
root  -18.0204 39.2665 46.0047 -10.3655 -67.666 11.9962
RightUpLeg  -29.924 -16.6563 3.20886
RightLeg  43.4789 6.59221 -10.6721
RightFoot  -6.52472 0.240489 -3.86828
RightToes  -5.82073e-011 -3.18055e-015 -2.98177e-016
Spine  16.1283 0.857404 -1.58877
Spine1  -1.33424 0.286611 2.70941
HEad  14.4804 -27.4388 9.74964
LeftShoulder1  -3.88251e-019 9.70628e-020 -3.87848e-018
LeftArm  -8.84642 9.2385 -60.491
LeftForeArm  -48.2705 -72.8528 36.3683
LeftHand  -1.47348 -8.96819 12.4954
RightShoulder  5.45783 9.20153 27.2389
RightArm  36.6483 -34.1525 31.603
RightForeArm  -65.3401 67.3597 -81.2052
RightHand  -3.09501 9.50648 -23.746
LeftUpLeg  -11.4624 13.3203 -3.73881
LeftLeg  24.3299 2.1719 8.81782
LeftFoot  -5.66088 0.0942813 -1.69798
LeftToes  1.2018e-011 -3.94675e-011 -1.33631e-011
126
root  -18.6065 39.3303 46.585 -17.222 -73.1816 18.1798
RightUpLeg  -29.8459 -21.2532 4.75151
RightLeg  38.8717 1.75018 -13.4776
RightFoot  -7.43969 0.389161 -7.24486
RightToes  -5.82073e-011 -3.18055e-015 -2.98177e-016
Spine  14.8953 0.672077 -3.01488
Spine1  -0.23671 -0.113755 3.04145
HEad  15.5304 -27.6246 8.89777
LeftShoulder1  -3.88251e-019 9.70628e-020 -3.87848e-018
LeftArm  -9.26258 11.7304 -57.6503
LeftForeArm  -61.4862 -76.4255 49.4614
LeftHand  -1.52322 -9.00791 12.8595
RightShoulder  5.74532 9.38429 28.4965
RightArm  41.88 -35.8728 28.0385
RightForeArm  -59.4301 66.8908 -76.0336
RightHand  -2.84561 9.2045 -22.3264
LeftUpLeg  -7.28156 17.469 -4.15091
LeftLeg  22.4755 3.74676 8.88933
LeftFoot  -6.57702 0.16572 -3.23799
LeftToes  1.2018e-011 -3.94675e-011 -1.33631e-011
127
root  -19.2604 39.2881 47.0783 -28.4878 -78.1849 28.9831
RightUpLeg  -29.6705 -27.2273 7.71075
RightLeg  32.7396 -1.60711 -13.2406
RightFoot  -6.63179 0.547865 -9.17178
RightToes  -5.82073e-011 -3.18055e-015 -2.98177e-016
Spine  13.0933 0.273901 -3.9729
Spine1  1.46341 -0.65151 3.30027
HEad  15.9947 -27.685 8.46936
LeftShoulder1  -3.88251e-019 9.70628e-020 -3.87848e-018
LeftArm  -9.36001 14.9572 -55.0336
LeftForeArm  -74.809 -78.3887 63.8721
LeftHand  -1.74122 -9.64539 14.0255
RightShoulder  5.99743 9.50158 29.6613
RightArm  45.7026 -37.5977 25.1543
RightForeArm  -49.1082 65.4701 -66.0531
RightHand  -2.61225 7.92684 -22.4399
LeftUpLeg  -4.07695 20.7375 -4.36945
LeftLeg  21.8839 5.69756 9.50364
LeftFoot  -7.29647 0.225227 -4.81207
LeftToes  1.2018e-011 -3.94675e-011 -1.33631e-011
128
root  -20.0247 39.2061 47.4486 -52.145 -82.212 52.286
RightUpLeg  -28.8197 -35.3137 12.5182
RightLeg  24.3939 -3.10508 -10.6497
RightFoot  -5.89397 0.775565 -11.8986
RightToes  -5.82073e-011 -3.18055e-015 -2.98177e-016
Spine  10.5566 -0.188323 -4.75706
Spine1  3.94175 -1.23169 3.5416
HEad  16.0581 -27.6497 8.264
LeftShoulder1  -3.88251e-019 9.70628e-020 -3.87848e-018
LeftArm  -9.41512 19.5482 -52.8708
LeftForeArm  -84.7878 -79.1409 75.5735
LeftHand  -1.97456 -10.2224 15.2649
RightShoulder  6.20408 9.5701 30.6576
RightArm  46.9815 -39.6047 23.3901
RightForeArm  -34.2378 62.0526 -53.005
RightHand  -2.21786 6.32798 -21.6122
LeftUpLeg  -1.28376 23.2293 -4.43793
LeftLeg  21.8149 8.58945 10.6833
LeftFoot  -7.64671 0.233969 -5.36343
LeftToes  1.2018e-011 -3.94675e-011 -1.33631e-011
129
root  -20.8983 39.0339 47.6553 -97.0706 -83.6717 96.5004
RightUpLeg  -26.0166 -41.1231 15.7312
RightLeg  17.4175 -3.67736 -6.87377
RightFoot  -7.09994 0.867994 -15.8949
RightToes  -5.82073e-011 -3.18055e-015 -2.98177e-016
Spine  8.5182 -0.617647 -5.37319
Spine1  5.95675 -1.74432 3.70333
HEad  16.5751 -27.5035 7.62098
LeftShoulder1  -3.88251e-019 9.70628e-020 -3.87848e-018
LeftArm  -9.66567 25.8573 -51.3985
LeftForeArm  -86.1754 -79.2009 78.6327
LeftHand  -2.17923 -10.6176 16.3799
RightShoulder  6.41331 9.64801 31.6331
RightArm  45.4869 -41.9709 22.3401
RightForeArm  -17.0404 56.4011 -41.0263
RightHand  -1.65063 4.72684 -18.6415
LeftUpLeg  1.62345 25.5982 -3.82536
LeftLeg  22.7836 10.9142 12.1153
LeftFoot  -8.08306 0.32775 -8.13217
LeftToes  1.2018e-011 -3.94675e-011 -1.33631e-011
130
root  -21.8063 38.8323 47.7048 -141.341 -81.2951 139.957
RightUpLeg  -20.1418 -35.039 12.7303
RightLeg  16.1437 -9.87759 -4.85557
RightFoot  -9.65682 0.595263 -17.8891
RightToes  -5.82073e-011 -3.18055e-015 -2.98177e-016
Spine  7.43182 -1.07752 -4.94429
Spine1  6.91052 -2.16928 3.76083
HEad  17.7144 -27.183 6.41992
LeftShoulder1  -3.88251e-019 9.70628e-020 -3.87848e-018
LeftArm  -10.8093 33.2523 -51.2281
LeftForeArm  -71.5866 -78.4009 65.8505
LeftHand  -2.34794 -10.8635 17.3447
RightShoulder  6.68769 9.77199 32.8419
RightArm  41.6688 -43.9306 21.436
RightForeArm  -1.21606 49.3157 -31.7114
RightHand  -1.13296 3.18229 -15.1711
LeftUpLeg  3.40929 27.9249 -1.9302
LeftLeg  26.5738 11.5094 14.4006
LeftFoot  -7.43732 0.751027 -15.062
LeftToes  1.2018e-011 -3.94675e-011 -1.33631e-011
131
root  -22.6976 38.6739 47.6574 -161.769 -76.8426 160.209
RightUpLeg  -18.8038 -31.3501 13.8116
RightLeg  17.7515 -7.82578 -6.76509
RightFoot  -12.1041 0.202445 -16.7383
RightToes  -5.82073e-011 -3.18055e-015 -2.98177e-016
Spine  6.20967 -1.65145 -4.00484
Spine1  7.52829 -2.67145 3.89486
HEad  18.5352 -26.5347 5.21888
LeftShoulder1  -3.88251e-019 9.70628e-020 -3.87848e-018
LeftArm  -13.8435 40.505 -52.9413
LeftForeArm  -47.4536 -74.6212 42.7969
LeftHand  -2.32147 -10.1854 17.8991
RightShoulder  6.97629 9.91687 34.0549
RightArm  35.4438 -44.6871 20.9926
RightForeArm  8.99251 41.2222 -24.2968
RightHand  -0.866495 1.67382 -14.0621
LeftUpLeg  1.77839 28.8637 0.0617942
LeftLeg  34.658 11.2936 19.1851
LeftFoot  -2.73843 1.88144 -20.6315
LeftToes  1.2018e-011 -3.94675e-011 -1.33631e-011
132
root  -23.5047 38.5566 47.5626 -169.752 -72.0966 168.651
RightUpLeg  -18.7603 -29.608 15.4997
RightLeg  19.4469 -3.36037 -8.06789
RightFoot  -13.6285 -0.0146915 -15.4586
RightToes  -5.82073e-011 -3.18055e-015 -2.98177e-016
Spine  4.62594 -2.2695 -3.89592
Spine1  8.45652 -3.47539 4.88218
HEad  18.4276 -25.6995 4.60894
LeftShoulder1  -3.88251e-019 9.70628e-020 -3.87848e-018
LeftArm  -18.4784 46.7959 -56.2642
LeftForeArm  -33.4111 -67.2093 26.1899
LeftHand  -1.9918 -8.24271 17.606
RightShoulder  7.11399 9.99147 34.6103
RightArm  27.0819 -44.4032 21.2243
RightForeArm  11.1168 33.2016 -18.6262
RightHand  -0.776145 0.103503 -16.0292
LeftUpLeg  -3.34817 27.1133 0.705811
LeftLeg  44.9369 9.6436 25.3359
LeftFoot  6.77161 3.19909 -18.3954
LeftToes  1.2018e-011 -3.94675e-011 -1.33631e-011
133
root  -24.1351 38.4168 47.4434 -173.173 -67.5142 172.419
RightUpLeg  -18.07 -26.654 15.4801
RightLeg  21.2575 -2.26875 -7.65446
RightFoot  -14.7848 -0.166145 -15.4466
RightToes  -5.82073e-011 -3.18055e-015 -2.98177e-016
Spine  3.85486 -2.90718 -4.49989
Spine1  9.45266 -4.41384 6.78126
HEad  17.9443 -25.152 4.79129
LeftShoulder1  -3.88251e-019 9.70628e-020 -3.87848e-018
LeftArm  -22.8249 51.9377 -60.0654
LeftForeArm  -31.8846 -58.8074 17.2389
LeftHand  -1.54679 -6.20516 16.1902
RightShoulder  7.06149 9.95947 34.4067
RightArm  19.2206 -43.8384 21.2124
RightForeArm  5.87641 27.4818 -15.0285
RightHand  -0.660313 -1.51156 -19.0871
LeftUpLeg  -9.36575 23.027 0.322687
LeftLeg  53.6492 4.76716 27.8962
LeftFoot  14.9542 2.85801 -11.129
LeftToes  1.2018e-011 -3.94675e-011 -1.33631e-011
134
root  -24.6828 38.3325 47.2963 -174.938 -62.327 174.019
RightUpLeg  -16.3459 -21.0117 14.1076
RightLeg  22.7495 -3.73466 -6.97579
RightFoot  -15.8782 -0.306224 -15.3261
RightToes  -5.82073e-011 -3.18055e-015 -2.98177e-016
Spine  4.09571 -3.22272 -4.83316
Spine1  10.0384 -4.68431 7.67953
HEad  17.7281 -24.9174 5.67913
LeftShoulder1  -3.88251e-019 9.70628e-020 -3.87848e-018
LeftArm  -25.3828 55.764 -63.0426
LeftForeArm  -35.1097 -50.8115 12.0641
LeftHand  -1.10459 -4.81931 13.2232
RightShoulder  6.99835 9.91441 34.1762
RightArm  15.2146 -43.3444 20.1356
RightForeArm  -2.96045 24.8767 -13.2513
RightHand  -0.471277 -2.96999 -21.3769
LeftUpLeg  -13.846 18.632 -0.381014
LeftLeg  59.6601 -0.569329 26.1293
LeftFoot  15.8731 1.73797 -6.48694
LeftToes  1.2018e-011 -3.94675e-011 -1.33631e-011
135
root  -25.3078 38.3894 47.1237 -175.894 -55.7707 174.724
RightUpLeg  -14.2713 -13.4686 12.8972
RightLeg  23.0432 -4.64622 -6.79376
RightFoot  -16.4789 -0.356195 -14.2871
RightToes  -5.82073e-011 -3.18055e-015 -2.98177e-016
Spine  4.0983 -2.97642 -3.94107
Spine1  10.3313 -3.74686 5.8919
HEad  17.5516 -24.2828 6.83179
LeftShoulder1  -3.88251e-019 9.70628e-020 -3.87848e-018
LeftArm  -26.0618 58.1579 -64.4668
LeftForeArm  -35.9804 -42.5794 8.59151
LeftHand  -0.656435 -3.71429 8.96681
RightShoulder  7.02632 9.91312 34.3263
RightArm  15.2012 -42.7565 18.5062
RightForeArm  -9.22949 24.3116 -12.6797
RightHand  -0.361632 -3.61893 -22.0808
LeftUpLeg  -16.7361 15.5246 -1.00346
LeftLeg  63.05 -3.34499 24.3954
LeftFoot  11.9789 1.26484 -5.56289
LeftToes  1.2018e-011 -3.94675e-011 -1.33631e-011
136
root  -26.0191 38.5374 46.9233 -176.361 -48.2194 175.198
RightUpLeg  -12.2791 -6.5314 12.3111
RightLeg  22.2222 -3.70908 -6.42599
RightFoot  -16.419 -0.323639 -13.4003
RightToes  -5.82073e-011 -3.18055e-015 -2.98177e-016
Spine  3.42511 -2.3904 -1.96344
Spine1  10.5126 -2.11016 2.39757
HEad  16.9747 -22.7537 7.5018
LeftShoulder1  -3.88251e-019 9.70628e-020 -3.87848e-018
LeftArm  -25.5702 59.7391 -64.9439
LeftForeArm  -34.0709 -34.0159 6.02062
LeftHand  -0.379736 -3.0636 5.70519
RightShoulder  7.01823 9.89155 34.3321
RightArm  17.1234 -42.0924 17.4761
RightForeArm  -10.16 24.7894 -12.8799
RightHand  -0.433684 -3.14008 -21.1902
LeftUpLeg  -19.12 13.3351 -1.38248
LeftLeg  63.8745 -3.39689 25.2387
LeftFoot  9.47029 1.16333 -5.69596
LeftToes  1.2018e-011 -3.94675e-011 -1.33631e-011
137
root  -26.7374 38.7064 46.661 -176.542 -40.6932 175.376
RightUpLeg  -10.2119 -1.14513 11.6639
RightLeg  21.0262 -1.89216 -5.47907
RightFoot  -16.1424 -0.281016 -12.9771
RightToes  -5.82073e-011 -3.18055e-015 -2.98177e-016
Spine  2.84292 -1.82805 -0.033579
Spine1  10.2715 -0.637651 -0.764524
HEad  16.2002 -20.7196 7.20396
LeftShoulder1  -3.88251e-019 9.70628e-020 -3.87848e-018
LeftArm  -25.9505 61.6147 -65.7561
LeftForeArm  -32.0264 -26.7236 3.69116
LeftHand  -0.303321 -2.23983 5.07259
RightShoulder  6.88091 9.80594 33.7978
RightArm  20.0384 -41.5722 17.2932
RightForeArm  -8.86809 25.9922 -13.5606
RightHand  -0.589739 -2.03615 -19.6032
LeftUpLeg  -21.288 11.0023 -1.68598
LeftLeg  62.7329 -1.64065 27.7122
LeftFoot  9.53934 0.810998 -3.92341
LeftToes  1.2018e-011 -3.94675e-011 -1.33631e-011
